<svg width="241" height="120" viewBox="0 0 241 120" fill="none" xmlns="http://www.w3.org/2000/svg">
<line x1="2.5117" y1="16.6275" x2="105.677" y2="16.6275" stroke="black" stroke-width="4"/>
<line x1="2.51378" y1="2" x2="234" y2="2" stroke="black" stroke-width="4"/>
<line x1="2.50718" y1="42.4118" x2="56.6149" y2="42.4118" stroke="black" stroke-width="4"/>
<line x1="2.5142" y1="29.6108" x2="80.5148" y2="29.6108" stroke="black" stroke-width="4"/>
<line x1="1.25817" y1="82.2776" x2="105.678" y2="82.2776" stroke="black" stroke-width="4"/>
<line y1="113" x2="104.42" y2="113" stroke="black" stroke-width="4"/>
<line x1="1.25817" y1="98.3704" x2="105.678" y2="98.3704" stroke="black" stroke-width="4"/>
<path d="M224 78L211 78" stroke="#BD1F36" stroke-width="4"/>
<path d="M225 93L210.099 93.0555" stroke="#BD1F36" stroke-width="4"/>
<path d="M228 113L213 93.15" stroke="#BD1F36" stroke-width="6"/>
<path d="M229.259 85.7499C229.259 88.4982 228.529 90.9073 227.364 92.5151C226.207 94.1132 224.658 94.8857 222.94 94.535C222.062 94.3559 221.46 94.1721 221.064 93.9869C220.658 93.7973 220.545 93.6426 220.516 93.5688C220.493 93.5136 220.478 93.4063 220.6 93.1705C220.723 92.9316 220.944 92.6461 221.255 92.2909C221.398 92.1271 221.558 91.951 221.729 91.7632C222.269 91.1703 222.914 90.4618 223.457 89.6608C224.183 88.59 224.771 87.2973 224.771 85.7499C224.771 84.2212 224.244 82.8207 223.586 81.6028C223.064 80.6361 222.441 79.7535 221.914 79.0079C221.781 78.8195 221.654 78.6398 221.537 78.4698C221.238 78.0379 221.007 77.6779 220.863 77.3776C220.711 77.0609 220.705 76.9069 220.72 76.8479C220.72 76.8476 220.72 76.8473 220.72 76.8469C220.722 76.8349 220.74 76.7506 221.006 76.6606C221.291 76.5641 221.763 76.5 222.5 76.5C224.579 76.5 226.247 77.4374 227.412 79.0472C228.587 80.6705 229.259 82.9966 229.259 85.7499Z" fill="#BD1F36" stroke="#BD1F36"/>
<path d="M225.802 114.5L217.114 97.9515L232.835 114.5H225.802Z" fill="#BD1F36" stroke="#BD1F36"/>
<path d="M209.583 76V115" stroke="#BD1F36" stroke-width="4"/>
<path d="M125.292 76L125.292 115" stroke="#BD1F36" stroke-width="4"/>
<path d="M159.226 78L124 78" stroke="#BD1F36" stroke-width="4"/>
<path d="M144.679 95.9814H124.55" stroke="#BD1F36" stroke-width="4"/>
<line x1="2.51603" y1="60.3331" x2="93.0974" y2="60.3331" stroke="#70E000" stroke-width="4"/>
<line y1="-2" x2="50.5636" y2="-2" transform="matrix(0.74643 -0.665464 0.55043 0.834881 93.0974 62.3331)" stroke="#70E000" stroke-width="4"/>
<line x1="127.572" y1="27.7633" x2="153.799" y2="61.0963" stroke="#70E000" stroke-width="4"/>
<line x1="123.292" y1="60.3331" x2="153.485" y2="60.3331" stroke="#70E000" stroke-width="4"/>
<path d="M152.516 61.7979L148.547 52.0555L156.898 61.7979L152.516 61.7979Z" fill="#70E000" stroke="#70E000"/>
<line x1="193.744" y1="59.9443" x2="171.099" y2="59.9443" stroke="#70E000" stroke-width="4"/>
<line x1="173.099" y1="24.3012" x2="173" y2="62.0052" stroke="#70E000" stroke-width="4"/>
<line x1="193.645" y1="113" x2="171" y2="113" stroke="#BD1F36" stroke-width="4"/>
<path d="M173 76V114.5" stroke="#BD1F36" stroke-width="4"/>
<line x1="193.645" y1="95" x2="171" y2="95" stroke="#BD1F36" stroke-width="4"/>
<path d="M194.645 78H172" stroke="#BD1F36" stroke-width="4"/>
<path d="M206 23V62" stroke="#70E000" stroke-width="4"/>
<path d="M231.162 23V62" stroke="#70E000" stroke-width="4"/>
<line x1="232.936" y1="60" x2="204" y2="60" stroke="#70E000" stroke-width="4"/>
</svg>
